<?xml version="1.0" standalone="no"?>
<!DOCTYPE svg PUBLIC "-//W3C//DTD SVG 20010904//EN"
 "http://www.w3.org/TR/2001/REC-SVG-20010904/DTD/svg10.dtd">
<svg version="1.0" xmlns="http://www.w3.org/2000/svg"
 width="222.000000pt" height="222.000000pt" viewBox="0 0 222.000000 222.000000"
 preserveAspectRatio="xMidYMid meet">
<metadata>
Created by potrace 1.11, written by Peter Selinger 2001-2013
</metadata>
<g transform="translate(0.000000,222.000000) scale(0.100000,-0.100000)"
fill="#000000" stroke="none">
<path d="M1090 2196 c-82 -27 -132 -59 -220 -142 -107 -102 -169 -195 -214
-322 -13 -37 -24 -71 -24 -77 -1 -5 -4 -35 -8 -65 -4 -30 -7 -65 -6 -78 1 -13
-15 -46 -36 -75 -139 -191 -237 -395 -257 -533 -3 -21 -8 -45 -11 -52 -22 -67
-22 -337 1 -430 5 -21 7 -21 33 -8 59 31 136 117 174 196 13 26 18 30 18 15 1
-20 5 -51 14 -115 3 -19 10 -57 16 -85 7 -27 13 -54 14 -60 8 -36 52 -150 79
-204 29 -57 37 -65 82 -83 97 -39 264 -70 385 -73 169 -4 168 -4 258 84 123
118 236 285 287 422 l16 46 31 -29 c16 -15 34 -28 38 -28 17 0 100 144 129
225 44 123 49 322 11 455 -38 132 -94 228 -196 332 l-56 57 17 43 c28 69 29
191 1 281 -37 120 -75 164 -166 191 -30 10 -89 33 -130 53 -106 51 -109 52
-165 67 -46 12 -57 11 -115 -8z"/>
</g>
</svg>
